<mxfile host="app.diagrams.net" modified="2023-12-15T06:44:20.695Z" agent="Mozilla/5.0 (Macintosh; Intel Mac OS X 10_15_7) AppleWebKit/537.36 (KHTML, like Gecko) Chrome/120.0.0.0 Safari/537.36" etag="UcULzJp53UuSaD48u_Dx" version="22.1.9" type="github">
  <diagram name="第 1 页" id="Ka0gu6g4MkIeOaY-7tnA">
    <mxGraphModel dx="2261" dy="761" grid="1" gridSize="10" guides="1" tooltips="1" connect="1" arrows="1" fold="1" page="1" pageScale="1" pageWidth="827" pageHeight="1169" math="0" shadow="0">
      <root>
        <mxCell id="0" />
        <mxCell id="1" parent="0" />
        <mxCell id="Q4t2JLVDIg3r-b49H8aY-1" value="" style="group" parent="1" vertex="1" connectable="0">
          <mxGeometry x="-150" y="60" width="917" height="640" as="geometry" />
        </mxCell>
        <object placeholders="1" c4Name="接入特征近端包的应用" label="&lt;font style=&quot;font-size: 16px&quot;&gt;&lt;b&gt;&lt;div style=&quot;text-align: left&quot;&gt;%c4Name%&lt;/div&gt;&lt;/b&gt;&lt;/font&gt;&lt;div style=&quot;text-align: left&quot;&gt;[%c4Application%]&lt;/div&gt;" c4Application="caas、处置等" id="xKt9iiCAsTmWtsSiSc3S-3">
          <mxCell style="rounded=1;fontSize=11;whiteSpace=wrap;html=1;dashed=1;arcSize=20;fillColor=none;strokeColor=#666666;fontColor=#333333;labelBackgroundColor=none;align=left;verticalAlign=bottom;labelBorderColor=none;spacingTop=0;spacing=10;dashPattern=8 4;metaEdit=1;rotatable=0;perimeter=rectanglePerimeter;noLabel=0;labelPadding=0;allowArrows=0;connectable=0;expand=0;recursiveResize=0;editable=1;pointerEvents=0;absoluteArcSize=1;points=[[0.25,0,0],[0.5,0,0],[0.75,0,0],[1,0.25,0],[1,0.5,0],[1,0.75,0],[0.75,1,0],[0.5,1,0],[0.25,1,0],[0,0.75,0],[0,0.5,0],[0,0.25,0]];" parent="Q4t2JLVDIg3r-b49H8aY-1" vertex="1">
            <mxGeometry x="249.5" width="280" height="410" as="geometry" />
          </mxCell>
        </object>
        <mxCell id="xKt9iiCAsTmWtsSiSc3S-4" value="内部逻辑" style="rounded=1;whiteSpace=wrap;html=1;" parent="Q4t2JLVDIg3r-b49H8aY-1" vertex="1">
          <mxGeometry x="349.5" y="60" width="120" height="60" as="geometry" />
        </mxCell>
        <mxCell id="xKt9iiCAsTmWtsSiSc3S-5" value="" style="rounded=1;whiteSpace=wrap;html=1;" parent="Q4t2JLVDIg3r-b49H8aY-1" vertex="1">
          <mxGeometry x="342" y="170" width="135" height="175" as="geometry" />
        </mxCell>
        <mxCell id="xKt9iiCAsTmWtsSiSc3S-8" style="edgeStyle=orthogonalEdgeStyle;rounded=0;orthogonalLoop=1;jettySize=auto;html=1;" parent="Q4t2JLVDIg3r-b49H8aY-1" source="xKt9iiCAsTmWtsSiSc3S-4" target="xKt9iiCAsTmWtsSiSc3S-5" edge="1">
          <mxGeometry relative="1" as="geometry" />
        </mxCell>
        <mxCell id="xKt9iiCAsTmWtsSiSc3S-2" value="" style="shape=image;html=1;verticalAlign=top;verticalLabelPosition=bottom;labelBackgroundColor=#ffffff;imageAspect=0;aspect=fixed;image=https://cdn3.iconfinder.com/data/icons/dompicon-glyph-file-format-2/256/file-jar-format-type-128.png;imageBackground=default;" parent="Q4t2JLVDIg3r-b49H8aY-1" vertex="1">
          <mxGeometry x="320" y="288" width="57" height="57" as="geometry" />
        </mxCell>
        <mxCell id="xKt9iiCAsTmWtsSiSc3S-28" style="rounded=0;orthogonalLoop=1;jettySize=auto;html=1;" parent="Q4t2JLVDIg3r-b49H8aY-1" source="xKt9iiCAsTmWtsSiSc3S-7" edge="1">
          <mxGeometry relative="1" as="geometry">
            <mxPoint x="667" y="210" as="targetPoint" />
          </mxGeometry>
        </mxCell>
        <mxCell id="gaPYlQ3sZuw7N69oZrH0-1" value="读" style="edgeLabel;html=1;align=center;verticalAlign=middle;resizable=0;points=[];" vertex="1" connectable="0" parent="xKt9iiCAsTmWtsSiSc3S-28">
          <mxGeometry x="-0.0775" y="3" relative="1" as="geometry">
            <mxPoint as="offset" />
          </mxGeometry>
        </mxCell>
        <mxCell id="xKt9iiCAsTmWtsSiSc3S-7" value="读取Tbase" style="rounded=1;whiteSpace=wrap;html=1;" parent="Q4t2JLVDIg3r-b49H8aY-1" vertex="1">
          <mxGeometry x="359.5" y="210" width="100" height="40" as="geometry" />
        </mxCell>
        <object placeholders="1" c4Name="特征应用" label="&lt;font style=&quot;font-size: 16px&quot;&gt;&lt;b&gt;&lt;div style=&quot;text-align: left&quot;&gt;%c4Name%&lt;/div&gt;&lt;/b&gt;&lt;/font&gt;&lt;div style=&quot;text-align: left&quot;&gt;[%c4Application%]&lt;/div&gt;" c4Application="rcdataservice、rcdatacore" id="xKt9iiCAsTmWtsSiSc3S-12">
          <mxCell style="rounded=1;fontSize=11;whiteSpace=wrap;html=1;dashed=1;arcSize=20;fillColor=none;strokeColor=#666666;fontColor=#333333;labelBackgroundColor=none;align=left;verticalAlign=bottom;labelBorderColor=none;spacingTop=0;spacing=10;dashPattern=8 4;metaEdit=1;rotatable=0;perimeter=rectanglePerimeter;noLabel=0;labelPadding=0;allowArrows=0;connectable=0;expand=0;recursiveResize=0;editable=1;pointerEvents=0;absoluteArcSize=1;points=[[0.25,0,0],[0.5,0,0],[0.75,0,0],[1,0.25,0],[1,0.5,0],[1,0.75,0],[0.75,1,0],[0.5,1,0],[0.25,1,0],[0,0.75,0],[0,0.5,0],[0,0.25,0]];" parent="Q4t2JLVDIg3r-b49H8aY-1" vertex="1">
            <mxGeometry x="237" y="460" width="280" height="180" as="geometry" />
          </mxCell>
        </object>
        <mxCell id="xKt9iiCAsTmWtsSiSc3S-18" value="本地缓存" style="rounded=1;whiteSpace=wrap;html=1;" parent="Q4t2JLVDIg3r-b49H8aY-1" vertex="1">
          <mxGeometry x="320" y="560" width="100" height="40" as="geometry" />
        </mxCell>
        <mxCell id="xKt9iiCAsTmWtsSiSc3S-34" style="rounded=0;orthogonalLoop=1;jettySize=auto;html=1;" parent="Q4t2JLVDIg3r-b49H8aY-1" source="xKt9iiCAsTmWtsSiSc3S-19" target="xKt9iiCAsTmWtsSiSc3S-18" edge="1">
          <mxGeometry relative="1" as="geometry" />
        </mxCell>
        <mxCell id="xKt9iiCAsTmWtsSiSc3S-19" value="查询标签" style="rounded=1;whiteSpace=wrap;html=1;" parent="Q4t2JLVDIg3r-b49H8aY-1" vertex="1">
          <mxGeometry x="249.5" y="480" width="100" height="40" as="geometry" />
        </mxCell>
        <mxCell id="xKt9iiCAsTmWtsSiSc3S-20" value="" style="group;" parent="Q4t2JLVDIg3r-b49H8aY-1" vertex="1" connectable="0">
          <mxGeometry x="667" y="100" width="250" height="164" as="geometry" />
        </mxCell>
        <mxCell id="xKt9iiCAsTmWtsSiSc3S-13" value="" style="image;sketch=0;aspect=fixed;html=1;points=[];align=center;fontSize=12;image=img/lib/mscae/Cache_Redis_Product.svg;" parent="xKt9iiCAsTmWtsSiSc3S-20" vertex="1">
          <mxGeometry x="53" y="49" width="50" height="42" as="geometry" />
        </mxCell>
        <mxCell id="xKt9iiCAsTmWtsSiSc3S-14" value="" style="image;sketch=0;aspect=fixed;html=1;points=[];align=center;fontSize=12;image=img/lib/mscae/Cache_Redis_Product.svg;" parent="xKt9iiCAsTmWtsSiSc3S-20" vertex="1">
          <mxGeometry x="143" y="51" width="50" height="42" as="geometry" />
        </mxCell>
        <object placeholders="1" c4Name="tbase集群" label="&lt;font style=&quot;font-size: 16px&quot;&gt;&lt;b&gt;&lt;div style=&quot;text-align: left&quot;&gt;%c4Name%&lt;/div&gt;&lt;/b&gt;&lt;/font&gt;&lt;div style=&quot;text-align: left&quot;&gt;[%c4Application%]&lt;/div&gt;" c4Application="通过集群地址直连" id="xKt9iiCAsTmWtsSiSc3S-15">
          <mxCell style="rounded=1;fontSize=11;whiteSpace=wrap;html=1;dashed=1;arcSize=20;fillColor=none;strokeColor=#666666;fontColor=#333333;labelBackgroundColor=none;align=left;verticalAlign=bottom;labelBorderColor=none;spacingTop=0;spacing=10;dashPattern=8 4;metaEdit=1;rotatable=0;perimeter=rectanglePerimeter;noLabel=0;labelPadding=0;allowArrows=0;connectable=0;expand=0;recursiveResize=0;editable=1;pointerEvents=0;absoluteArcSize=1;points=[[0.25,0,0],[0.5,0,0],[0.75,0,0],[1,0.25,0],[1,0.5,0],[1,0.75,0],[0.75,1,0],[0.5,1,0],[0.25,1,0],[0,0.75,0],[0,0.5,0],[0,0.25,0]];" parent="xKt9iiCAsTmWtsSiSc3S-20" vertex="1">
            <mxGeometry width="250" height="164" as="geometry" />
          </mxCell>
        </object>
        <mxCell id="xKt9iiCAsTmWtsSiSc3S-30" style="rounded=0;orthogonalLoop=1;jettySize=auto;html=1;exitX=1;exitY=0;exitDx=0;exitDy=0;" parent="Q4t2JLVDIg3r-b49H8aY-1" source="xKt9iiCAsTmWtsSiSc3S-35" edge="1">
          <mxGeometry relative="1" as="geometry">
            <mxPoint x="497" y="540" as="sourcePoint" />
            <mxPoint x="717" y="270" as="targetPoint" />
          </mxGeometry>
        </mxCell>
        <mxCell id="xKt9iiCAsTmWtsSiSc3S-41" value="缓存miss读OB后 写缓存" style="edgeLabel;html=1;align=center;verticalAlign=middle;resizable=0;points=[];" parent="xKt9iiCAsTmWtsSiSc3S-30" vertex="1" connectable="0">
          <mxGeometry x="0.1271" y="-5" relative="1" as="geometry">
            <mxPoint x="16" y="14" as="offset" />
          </mxGeometry>
        </mxCell>
        <mxCell id="xKt9iiCAsTmWtsSiSc3S-25" value="" style="group" parent="Q4t2JLVDIg3r-b49H8aY-1" vertex="1" connectable="0">
          <mxGeometry x="697" y="510" width="80" height="70" as="geometry" />
        </mxCell>
        <mxCell id="xKt9iiCAsTmWtsSiSc3S-22" value="" style="strokeWidth=2;html=1;shape=mxgraph.flowchart.database;whiteSpace=wrap;" parent="xKt9iiCAsTmWtsSiSc3S-25" vertex="1">
          <mxGeometry width="60" height="60" as="geometry" />
        </mxCell>
        <mxCell id="xKt9iiCAsTmWtsSiSc3S-23" value="OB" style="strokeWidth=2;html=1;shape=mxgraph.flowchart.database;whiteSpace=wrap;" parent="xKt9iiCAsTmWtsSiSc3S-25" vertex="1">
          <mxGeometry x="20" y="10" width="60" height="60" as="geometry" />
        </mxCell>
        <mxCell id="xKt9iiCAsTmWtsSiSc3S-33" value="" style="edgeStyle=none;orthogonalLoop=1;jettySize=auto;html=1;rounded=0;exitX=0.5;exitY=1;exitDx=0;exitDy=0;" parent="Q4t2JLVDIg3r-b49H8aY-1" source="xKt9iiCAsTmWtsSiSc3S-5" edge="1">
          <mxGeometry width="100" relative="1" as="geometry">
            <mxPoint x="117" y="290" as="sourcePoint" />
            <mxPoint x="407" y="460" as="targetPoint" />
            <Array as="points" />
          </mxGeometry>
        </mxCell>
        <mxCell id="xKt9iiCAsTmWtsSiSc3S-38" value="miss" style="edgeLabel;html=1;align=center;verticalAlign=middle;resizable=0;points=[];" parent="xKt9iiCAsTmWtsSiSc3S-33" vertex="1" connectable="0">
          <mxGeometry x="0.5756" relative="1" as="geometry">
            <mxPoint as="offset" />
          </mxGeometry>
        </mxCell>
        <mxCell id="xKt9iiCAsTmWtsSiSc3S-39" style="rounded=0;orthogonalLoop=1;jettySize=auto;html=1;exitX=0.58;exitY=-0.075;exitDx=0;exitDy=0;exitPerimeter=0;" parent="Q4t2JLVDIg3r-b49H8aY-1" source="xKt9iiCAsTmWtsSiSc3S-35" edge="1">
          <mxGeometry relative="1" as="geometry">
            <mxPoint x="667" y="260" as="targetPoint" />
          </mxGeometry>
        </mxCell>
        <mxCell id="xKt9iiCAsTmWtsSiSc3S-40" value="读" style="edgeLabel;html=1;align=center;verticalAlign=middle;resizable=0;points=[];" parent="xKt9iiCAsTmWtsSiSc3S-39" vertex="1" connectable="0">
          <mxGeometry x="-0.335" y="-1" relative="1" as="geometry">
            <mxPoint as="offset" />
          </mxGeometry>
        </mxCell>
        <mxCell id="xKt9iiCAsTmWtsSiSc3S-43" style="edgeStyle=orthogonalEdgeStyle;rounded=0;orthogonalLoop=1;jettySize=auto;html=1;curved=1;" parent="Q4t2JLVDIg3r-b49H8aY-1" source="xKt9iiCAsTmWtsSiSc3S-35" target="xKt9iiCAsTmWtsSiSc3S-22" edge="1">
          <mxGeometry relative="1" as="geometry" />
        </mxCell>
        <mxCell id="xKt9iiCAsTmWtsSiSc3S-44" value="读" style="edgeLabel;html=1;align=center;verticalAlign=middle;resizable=0;points=[];" parent="xKt9iiCAsTmWtsSiSc3S-43" vertex="1" connectable="0">
          <mxGeometry x="-0.0564" y="-10" relative="1" as="geometry">
            <mxPoint as="offset" />
          </mxGeometry>
        </mxCell>
        <mxCell id="xKt9iiCAsTmWtsSiSc3S-35" value="缓存读取" style="rounded=1;whiteSpace=wrap;html=1;" parent="Q4t2JLVDIg3r-b49H8aY-1" vertex="1">
          <mxGeometry x="397" y="480" width="100" height="40" as="geometry" />
        </mxCell>
        <mxCell id="xKt9iiCAsTmWtsSiSc3S-36" style="rounded=0;orthogonalLoop=1;jettySize=auto;html=1;exitX=1;exitY=0;exitDx=0;exitDy=0;" parent="Q4t2JLVDIg3r-b49H8aY-1" source="xKt9iiCAsTmWtsSiSc3S-18" target="xKt9iiCAsTmWtsSiSc3S-35" edge="1">
          <mxGeometry relative="1" as="geometry" />
        </mxCell>
        <mxCell id="xKt9iiCAsTmWtsSiSc3S-37" value="miss" style="edgeLabel;html=1;align=center;verticalAlign=middle;resizable=0;points=[];" parent="xKt9iiCAsTmWtsSiSc3S-36" vertex="1" connectable="0">
          <mxGeometry x="-0.2741" y="3" relative="1" as="geometry">
            <mxPoint as="offset" />
          </mxGeometry>
        </mxCell>
        <mxCell id="xKt9iiCAsTmWtsSiSc3S-46" style="edgeStyle=orthogonalEdgeStyle;rounded=0;orthogonalLoop=1;jettySize=auto;html=1;strokeWidth=2;" parent="Q4t2JLVDIg3r-b49H8aY-1" source="xKt9iiCAsTmWtsSiSc3S-45" target="xKt9iiCAsTmWtsSiSc3S-19" edge="1">
          <mxGeometry relative="1" as="geometry" />
        </mxCell>
        <mxCell id="xKt9iiCAsTmWtsSiSc3S-45" value="其他应用" style="sketch=0;pointerEvents=1;shadow=0;dashed=0;html=1;strokeColor=none;labelPosition=center;verticalLabelPosition=bottom;verticalAlign=top;align=center;fillColor=#515151;shape=mxgraph.mscae.system_center.cloud_distribution_point" parent="Q4t2JLVDIg3r-b49H8aY-1" vertex="1">
          <mxGeometry y="442.5" width="106" height="115" as="geometry" />
        </mxCell>
        <mxCell id="0VNk9lENp_9T068dHFFU-1" value="近端包" style="text;html=1;align=center;verticalAlign=middle;resizable=0;points=[];autosize=1;strokeColor=none;fillColor=none;" parent="Q4t2JLVDIg3r-b49H8aY-1" vertex="1">
          <mxGeometry x="399.5" y="340" width="60" height="30" as="geometry" />
        </mxCell>
      </root>
    </mxGraphModel>
  </diagram>
</mxfile>
